<svg width="32" height="32" viewBox="0 0 32 32" fill="none" xmlns="http://www.w3.org/2000/svg">
<path d="M14.6667 2C18.6667 2 20 5.36494 20 8.66667C20 11.9684 17.6367 14.6667 14.6667 14.6667C11.6967 14.6667 9.33332 12.03 9.33332 8.66667C9.33332 5.3033 10.6666 2 14.6667 2Z" fill="#0B1F35"/>
<path d="M26.6667 28V25.3333C26.598 24.32 26.1401 23.5343 25.4776 22.7644C23.9664 21.0081 20.5231 18.6667 14.6667 18.6667C9.32227 18.6667 5.76083 20.869 4.07203 22.6392C3.26938 23.4805 2.74533 24.1732 2.66667 25.3333V28H26.6667Z" fill="#0B1F35"/>
<path d="M26.1794 4.39088C26.6999 3.86998 27.5441 3.86967 28.065 4.39017C29.7991 6.12294 30.6667 8.3969 30.6667 10.6667C30.6667 12.9364 29.7991 15.2104 28.065 16.9432C27.5441 17.4637 26.6999 17.4633 26.1794 16.9425C25.6589 16.4216 25.6592 15.5773 26.1801 15.0568C27.3937 13.8441 28 12.2575 28 10.6667C28 9.07586 27.3937 7.48924 26.1801 6.2765C25.6592 5.756 25.6589 4.91178 26.1794 4.39088Z" fill="#0B1F35"/>
<path d="M24.3509 7.83828C23.8302 7.31758 22.9859 7.31758 22.4652 7.83828C21.9445 8.35898 21.9445 9.2032 22.4652 9.7239C22.7258 9.9845 22.8558 10.3234 22.8558 10.6667C22.8558 11.01 22.7258 11.3489 22.4652 11.6095C21.9445 12.1302 21.9445 12.9744 22.4652 13.4951C22.9859 14.0158 23.8302 14.0158 24.3509 13.4951C25.1317 12.7143 25.5224 11.6883 25.5224 10.6666C25.5224 9.64504 25.1316 8.61905 24.3509 7.83828Z" fill="#0B1F35"/>
</svg>
