<svg width="603" height="495" viewBox="0 0 603 495" fill="none" xmlns="http://www.w3.org/2000/svg">
<g clip-path="url(#clip0)">
<rect width="603" height="495" fill="white"/>
<path d="M363.388 220.215C388.453 177.507 405.185 134.945 411.801 100.47C415.102 83.2692 415.972 67.6343 413.805 54.823C411.648 42.0645 406.234 30.9459 395.919 24.8922C385.604 18.8385 373.257 19.5333 361.066 23.8703C348.824 28.2253 335.598 36.6088 322.191 47.8776C295.317 70.4635 266.316 105.825 241.251 148.533C216.186 191.24 199.454 233.802 192.838 268.278C189.537 285.478 188.667 301.113 190.834 313.924C192.992 326.683 198.405 337.801 208.72 343.855C219.035 349.909 231.382 349.214 243.573 344.877C255.815 340.522 269.041 332.139 282.449 320.87C309.322 298.284 338.323 262.922 363.388 220.215Z" stroke="#F31818" stroke-width="16"/>
<path d="M302.89 254.923C352.409 255.1 397.611 248.149 430.734 236.523C447.26 230.723 461.21 223.61 471.192 215.292C481.133 207.009 488.019 196.736 488.062 184.776C488.104 172.817 481.293 162.495 471.411 154.141C461.489 145.752 447.59 138.539 431.106 132.62C398.067 120.757 352.916 113.482 303.397 113.305C253.878 113.127 208.676 120.079 175.553 131.704C159.027 137.505 145.077 144.618 135.095 152.935C125.154 161.219 118.268 171.491 118.225 183.451C118.182 195.411 124.994 205.732 134.875 214.087C144.798 222.476 158.697 229.689 175.181 235.607C208.22 247.47 253.371 254.745 302.89 254.923Z" stroke="#F31818" stroke-width="16"/>
<path d="M242.501 220.878C267.283 263.75 296.05 299.303 322.773 322.066C336.106 333.423 349.276 341.894 361.489 346.33C373.651 350.748 385.993 351.524 396.348 345.539C406.702 339.553 412.19 328.471 414.432 315.727C416.683 302.93 415.916 287.29 412.729 270.068C406.342 235.55 389.892 192.878 365.11 150.005C340.328 107.133 311.561 71.5803 284.838 48.8171C271.505 37.4599 258.335 28.9891 246.122 24.5532C233.96 20.1357 221.618 19.3592 211.263 25.3445C200.908 31.3299 195.421 42.4124 193.179 55.1564C190.927 67.9531 191.695 83.5933 194.881 100.815C201.269 135.334 217.719 178.006 242.501 220.878Z" stroke="#F31818" stroke-width="16"/>
<ellipse cx="302.787" cy="184.152" rx="33.5" ry="34" fill="#F31818"/>
<path d="M50.375 466.352H24.6914L19.8086 481H4.23242L30.6973 409.906H44.2715L70.8828 481H55.3066L50.375 466.352ZM28.6465 454.486H46.4199L37.4844 427.875L28.6465 454.486ZM92.1719 469.232H123.275V481H77.5234V409.906H92.1719V469.232ZM174.496 451.947H146.371V481H131.723V409.906H178.012V421.771H146.371V440.131H174.496V451.947ZM217.27 466.352H191.586L186.703 481H171.127L197.592 409.906H211.166L237.777 481H222.201L217.27 466.352ZM195.541 454.486H213.314L204.379 427.875L195.541 454.486ZM309.457 466.352H283.773L278.891 481H263.314L289.779 409.906H303.354L329.965 481H314.389L309.457 466.352ZM287.729 454.486H305.502L296.566 427.875L287.729 454.486ZM384.262 421.771H362.484V481H347.836V421.771H326.352V409.906H384.262V421.771ZM449.691 447.064C449.691 454.063 448.454 460.199 445.98 465.473C443.507 470.746 439.958 474.815 435.336 477.68C430.746 480.544 425.473 481.977 419.516 481.977C413.624 481.977 408.367 480.561 403.744 477.729C399.122 474.896 395.541 470.86 393.002 465.619C390.463 460.346 389.177 454.291 389.145 447.455V443.939C389.145 436.941 390.398 430.788 392.904 425.482C395.443 420.144 399.008 416.059 403.598 413.227C408.22 410.362 413.493 408.93 419.418 408.93C425.342 408.93 430.6 410.362 435.189 413.227C439.812 416.059 443.376 420.144 445.883 425.482C448.422 430.788 449.691 436.924 449.691 443.891V447.064ZM434.848 443.842C434.848 436.387 433.513 430.723 430.844 426.85C428.174 422.976 424.366 421.039 419.418 421.039C414.503 421.039 410.71 422.96 408.041 426.801C405.372 430.609 404.021 436.208 403.988 443.598V447.064C403.988 454.324 405.323 459.955 407.992 463.959C410.661 467.963 414.503 469.965 419.516 469.965C424.431 469.965 428.207 468.044 430.844 464.203C433.48 460.329 434.815 454.698 434.848 447.309V443.842ZM479.477 409.906L497.738 461.469L515.902 409.906H535.141V481H520.443V461.566L521.908 428.021L502.719 481H492.66L473.52 428.07L474.984 461.566V481H460.336V409.906H479.477ZM584.799 462.348C584.799 459.581 583.822 457.465 581.869 456C579.916 454.503 576.4 452.94 571.322 451.312C566.244 449.652 562.224 448.025 559.262 446.43C551.189 442.068 547.152 436.192 547.152 428.803C547.152 424.962 548.227 421.544 550.375 418.549C552.556 415.521 555.665 413.161 559.701 411.469C563.77 409.776 568.327 408.93 573.373 408.93C578.451 408.93 582.976 409.857 586.947 411.713C590.919 413.536 593.995 416.124 596.176 419.477C598.389 422.829 599.496 426.638 599.496 430.902H584.848C584.848 427.647 583.822 425.124 581.771 423.334C579.721 421.511 576.84 420.6 573.129 420.6C569.548 420.6 566.765 421.365 564.779 422.895C562.794 424.392 561.801 426.378 561.801 428.852C561.801 431.163 562.956 433.1 565.268 434.662C567.611 436.225 571.046 437.689 575.57 439.057C583.904 441.563 589.975 444.672 593.783 448.383C597.592 452.094 599.496 456.716 599.496 462.25C599.496 468.402 597.169 473.236 592.514 476.752C587.859 480.235 581.592 481.977 573.715 481.977C568.246 481.977 563.266 480.984 558.773 478.998C554.281 476.98 550.847 474.229 548.471 470.746C546.127 467.263 544.955 463.227 544.955 458.637H559.652C559.652 466.482 564.34 470.404 573.715 470.404C577.198 470.404 579.916 469.704 581.869 468.305C583.822 466.872 584.799 464.887 584.799 462.348Z" fill="#F31818"/>
</g>
<defs>
<clipPath id="clip0">
<rect width="603" height="495" fill="white"/>
</clipPath>
</defs>
</svg>
