<svg width="512" height="512" viewBox="0 0 512 512" fill="none" xmlns="http://www.w3.org/2000/svg">
<g clip-path="url(#clip0)">
<rect width="512" height="512" fill="white"/>
<path d="M316.101 220.215C341.166 177.507 357.899 134.945 364.514 100.47C367.815 83.2692 368.686 67.6343 366.519 54.823C364.361 42.0645 358.947 30.9459 348.632 24.8922C338.317 18.8385 325.971 19.5333 313.779 23.8703C301.538 28.2253 288.312 36.6088 274.904 47.8776C248.031 70.4635 219.029 105.825 193.964 148.533C168.899 191.24 152.167 233.802 145.551 268.278C142.251 285.478 141.38 301.113 143.547 313.924C145.705 326.683 151.119 337.801 161.433 343.855C171.748 349.909 184.095 349.214 196.286 344.877C208.528 340.522 221.754 332.139 235.162 320.87C262.035 298.284 291.037 262.922 316.101 220.215Z" stroke="#F31818" stroke-width="16"/>
<path d="M255.603 254.923C305.122 255.1 350.324 248.149 383.447 236.523C399.973 230.723 413.923 223.61 423.905 215.292C433.846 207.009 440.732 196.736 440.775 184.776C440.818 172.817 434.006 162.495 424.125 154.141C414.202 145.752 400.303 138.539 383.819 132.62C350.78 120.757 305.629 113.482 256.11 113.305C206.591 113.127 161.389 120.079 128.266 131.704C111.74 137.505 97.79 144.618 87.8079 152.935C77.867 161.219 70.9813 171.491 70.9384 183.451C70.8956 195.411 77.7074 205.732 87.5887 214.087C97.5109 222.476 111.41 229.689 127.894 235.607C160.933 247.47 206.084 254.745 255.603 254.923Z" stroke="#F31818" stroke-width="16"/>
<path d="M195.214 220.878C219.996 263.75 248.763 299.303 275.486 322.066C288.819 333.423 301.989 341.894 314.202 346.33C326.364 350.748 338.707 351.524 349.061 345.539C359.416 339.553 364.903 328.471 367.145 315.727C369.397 302.93 368.63 287.29 365.443 270.068C359.055 235.55 342.605 192.878 317.823 150.005C293.041 107.133 264.274 71.5803 237.551 48.8171C224.218 37.4599 211.048 28.9891 198.835 24.5532C186.673 20.1357 174.331 19.3592 163.976 25.3445C153.622 31.3299 148.135 42.4124 145.892 55.1564C143.641 67.9531 144.408 83.5933 147.595 100.815C153.982 135.334 170.433 178.006 195.214 220.878Z" stroke="#F31818" stroke-width="16"/>
<ellipse cx="255.5" cy="184.152" rx="33.5" ry="34" fill="#F31818"/>
<path d="M136.416 463.352H110.732L105.85 478H90.2734L116.738 406.906H130.312L156.924 478H141.348L136.416 463.352ZM114.688 451.486H132.461L123.525 424.875L114.688 451.486ZM211.221 418.771H189.443V478H174.795V418.771H153.311V406.906H211.221V418.771ZM276.65 444.064C276.65 451.063 275.413 457.199 272.939 462.473C270.465 467.746 266.917 471.815 262.295 474.68C257.705 477.544 252.432 478.977 246.475 478.977C240.583 478.977 235.326 477.561 230.703 474.729C226.081 471.896 222.5 467.86 219.961 462.619C217.422 457.346 216.136 451.291 216.104 444.455V440.939C216.104 433.941 217.357 427.788 219.863 422.482C222.402 417.144 225.967 413.059 230.557 410.227C235.179 407.362 240.452 405.93 246.377 405.93C252.301 405.93 257.559 407.362 262.148 410.227C266.771 413.059 270.335 417.144 272.842 422.482C275.381 427.788 276.65 433.924 276.65 440.891V444.064ZM261.807 440.842C261.807 433.387 260.472 427.723 257.803 423.85C255.133 419.976 251.325 418.039 246.377 418.039C241.462 418.039 237.669 419.96 235 423.801C232.331 427.609 230.98 433.208 230.947 440.598V444.064C230.947 451.324 232.282 456.955 234.951 460.959C237.62 464.963 241.462 466.965 246.475 466.965C251.39 466.965 255.166 465.044 257.803 461.203C260.439 457.329 261.774 451.698 261.807 444.309V440.842ZM306.436 406.906L324.697 458.469L342.861 406.906H362.1V478H347.402V458.566L348.867 425.021L329.678 478H319.619L300.479 425.07L301.943 458.566V478H287.295V406.906H306.436ZM411.758 459.348C411.758 456.581 410.781 454.465 408.828 453C406.875 451.503 403.359 449.94 398.281 448.312C393.203 446.652 389.183 445.025 386.221 443.43C378.148 439.068 374.111 433.192 374.111 425.803C374.111 421.962 375.186 418.544 377.334 415.549C379.515 412.521 382.624 410.161 386.66 408.469C390.729 406.776 395.286 405.93 400.332 405.93C405.41 405.93 409.935 406.857 413.906 408.713C417.878 410.536 420.954 413.124 423.135 416.477C425.348 419.829 426.455 423.638 426.455 427.902H411.807C411.807 424.647 410.781 422.124 408.73 420.334C406.68 418.511 403.799 417.6 400.088 417.6C396.507 417.6 393.724 418.365 391.738 419.895C389.753 421.392 388.76 423.378 388.76 425.852C388.76 428.163 389.915 430.1 392.227 431.662C394.57 433.225 398.005 434.689 402.529 436.057C410.863 438.563 416.934 441.672 420.742 445.383C424.551 449.094 426.455 453.716 426.455 459.25C426.455 465.402 424.128 470.236 419.473 473.752C414.818 477.235 408.551 478.977 400.674 478.977C395.205 478.977 390.225 477.984 385.732 475.998C381.24 473.98 377.806 471.229 375.43 467.746C373.086 464.263 371.914 460.227 371.914 455.637H386.611C386.611 463.482 391.299 467.404 400.674 467.404C404.157 467.404 406.875 466.704 408.828 465.305C410.781 463.872 411.758 461.887 411.758 459.348Z" fill="#F31818"/>
</g>
<defs>
<clipPath id="clip0">
<rect width="512" height="512" fill="white"/>
</clipPath>
</defs>
</svg>
