<svg width="32" height="32" viewBox="0 0 32 32" fill="none" xmlns="http://www.w3.org/2000/svg">
<path fill-rule="evenodd" clip-rule="evenodd" d="M5 1C2.79086 1 1 2.79086 1 5V27C1 29.2091 2.79086 31 5 31H27C29.2091 31 31 29.2091 31 27V5C31 2.79086 29.2091 1 27 1H5ZM21.6552 18.482C21.9399 18.2899 22.3262 18.1938 22.8142 18.1938C23.8004 18.1938 24.4866 18.5087 24.873 19.1386H27.5265C27.435 18.7543 27.2926 18.3966 27.0995 18.0657C26.9063 17.7348 26.6318 17.4038 26.276 17.0729C25.9303 16.7419 25.4575 16.4804 24.8577 16.2882C24.268 16.0961 23.5869 16 22.8142 16C21.5535 16 20.5369 16.2989 19.7642 16.8967C18.9915 17.4946 18.6052 18.3166 18.6052 19.3628C18.6052 20.4303 18.9356 21.247 19.5964 21.8128C20.2674 22.3679 21.2333 22.7362 22.4939 22.9177L23.592 23.0778C24.0901 23.1526 24.4663 23.286 24.7205 23.4782C24.9848 23.6596 25.117 23.9425 25.117 24.3269C25.117 24.7112 24.9645 25.0154 24.6595 25.2396C24.3646 25.4531 23.9325 25.5599 23.3632 25.5599C22.7227 25.5599 22.2093 25.4318 21.8229 25.1756C21.4366 24.9087 21.1824 24.6098 21.0604 24.2788H18.3002C18.3917 24.6952 18.5442 25.0955 18.7577 25.4798C18.9814 25.8535 19.2813 26.2218 19.6574 26.5847C20.0336 26.9477 20.5419 27.2413 21.1824 27.4655C21.8229 27.679 22.5499 27.7857 23.3632 27.7857C24.756 27.7857 25.8388 27.4494 26.6115 26.7769C27.3943 26.1043 27.7857 25.2129 27.7857 24.1027C27.7857 22.9391 27.4451 22.0904 26.764 21.5566C26.0828 21.0228 25.0763 20.6652 23.7445 20.4837L22.6617 20.3396C21.7162 20.2008 21.2434 19.8378 21.2434 19.2507C21.2434 18.9304 21.3807 18.6742 21.6552 18.482ZM7.42857 16.2082V18.5781H11.1343V27.5775H13.7116V18.5781H17.4174V16.2082H7.42857Z" fill="#0B1F35"/>
</svg>
