<svg width="136" height="136" viewBox="0 0 136 136" fill="none" xmlns="http://www.w3.org/2000/svg">
<path d="M83.0383 11.2016L87.2799 3.22039L90.3823 3.82687L83.6382 16.1444L80.7599 15.6047L79.4269 6.34982L74.7793 14.4766L71.9677 13.949L70.0469 0L73.5007 0.64893L74.5308 9.6066L78.93 1.64962L81.8143 2.19545L83.0383 11.2016Z" fill="#0B1F35"/>
<path d="M95.1088 6.31342L104.907 11.6565L103.647 13.9672L96.654 10.1524L95.5027 12.263L99.6776 14.5372L98.393 16.9025L94.2181 14.6222L92.8547 17.133L100.49 21.2995L99.1686 23.7254L88.7283 18.0306L95.1088 6.31342Z" fill="#0B1F35"/>
<path d="M109.312 14.8951L111.675 17.042L104.598 24.8352L110.421 30.1359L108.524 32.2221L100.338 24.7685L109.312 14.8951Z" fill="#0B1F35"/>
<path d="M114.311 28.6924C115.045 28.155 115.881 27.7735 116.767 27.5714C117.654 27.3693 118.572 27.3509 119.466 27.5174C120.36 27.6838 121.211 28.0316 121.965 28.5393C122.72 29.0469 123.363 29.7038 123.855 30.4694C126.278 34.0598 124.751 37.1103 123.673 38.2323L121.855 35.5396C122.107 34.9837 122.205 34.3705 122.14 33.7637C122.075 33.1569 121.849 32.5786 121.485 32.0887C120.237 30.2693 117.971 30.1601 116.153 31.3973C114.335 32.6345 113.59 34.7754 114.838 36.613C115.147 37.1458 115.6 37.5809 116.144 37.8683C116.688 38.1558 117.303 38.284 117.916 38.2384L119.734 40.9129C118.486 41.4466 114.984 41.944 112.463 38.2262C111.927 37.4897 111.548 36.6506 111.351 35.7612C111.153 34.8718 111.141 33.9512 111.314 33.0568C111.487 32.1623 111.843 31.3132 112.359 30.5623C112.874 29.8115 113.539 29.1749 114.311 28.6924Z" fill="#0B1F35"/>
<path d="M122.934 41.9076C126.812 40.5854 130.453 42.5989 131.75 46.3894C133.047 50.1799 131.38 53.9825 127.508 55.3046C123.636 56.6268 119.989 54.6133 118.704 50.841C117.419 47.0687 119.08 43.2236 122.934 41.9076ZM126.454 52.2177C128.569 51.496 129.805 49.5249 129.047 47.2991C128.29 45.0734 126.121 44.2668 123.988 44.9703C121.855 45.6738 120.643 47.6873 121.4 49.907C122.158 52.1267 124.321 52.9576 126.454 52.2298V52.2177Z" fill="#0B1F35"/>
<path d="M134.943 58.8223L135.04 63.5043L126.503 67.0704L135.174 70.2665L135.271 74.7423L121.94 75.0273L121.873 71.9404L131.956 71.7281L121.77 68.0347L121.728 65.8938L131.671 61.8243L121.661 62.0366L121.601 59.1073L134.943 58.8223Z" fill="#0B1F35"/>
<path d="M134.174 80.892L131.217 91.663L128.684 90.9655L130.793 83.2815L128.472 82.675L127.212 87.26L124.624 86.5443L125.884 81.9594L123.127 81.2013L120.825 89.5949L118.165 88.8671L121.31 77.3926L134.174 80.892Z" fill="#0B1F35"/>
<path d="M109.973 109.451L114.869 117.05L112.851 119.476L105.374 107.571L107.252 105.321L115.984 108.669L111.136 100.645L112.954 98.4495L126.073 103.58L123.818 106.279L115.535 102.78L120.328 110.506L118.45 112.756L109.973 109.451Z" fill="#0B1F35"/>
<path d="M108.379 122.381L98.9565 128.361L97.5446 126.135L104.271 121.89L102.986 119.858L98.9686 122.405L97.5325 120.137L101.55 117.59L100.017 115.164L92.6728 119.828L91.1943 117.493L101.235 111.119L108.379 122.381Z" fill="#0B1F35"/>
<path d="M93.9755 130.678L90.9458 131.703L87.5889 121.726L80.1297 124.237L79.239 121.532L89.7218 118.002L93.9755 130.678Z" fill="#0B1F35"/>
<path d="M79.5117 128.306C79.6225 129.21 79.5474 130.127 79.2908 131.001C79.0342 131.874 78.6017 132.686 78.0199 133.386C77.438 134.086 76.7192 134.659 75.9076 135.071C75.096 135.482 74.2089 135.723 73.3008 135.778C68.9744 136.154 67.0717 133.352 66.6354 131.83L69.8772 131.551C70.2403 132.042 70.7278 132.426 71.2892 132.665C71.8506 132.904 72.4656 132.988 73.0705 132.909C75.2762 132.715 76.4638 130.781 76.276 128.591C76.0881 126.402 74.5733 124.704 72.3676 124.892C71.7516 124.904 71.1512 125.088 70.6341 125.424C70.117 125.759 69.7038 126.232 69.4409 126.79L66.2234 127.075C66.3688 125.723 67.6474 122.417 72.1192 122.029C73.0213 121.929 73.9345 122.014 74.8026 122.279C75.6707 122.545 76.4755 122.985 77.1677 123.572C77.8598 124.16 78.4248 124.883 78.8278 125.697C79.2309 126.511 79.4636 127.399 79.5117 128.306Z" fill="#0B1F35"/>
<path d="M63.7935 129.398C63.0724 133.437 59.5519 135.645 55.6012 134.935C51.6504 134.225 49.1479 130.926 49.8689 126.893C50.59 122.86 54.1105 120.646 58.0431 121.35C61.9757 122.053 64.5146 125.383 63.7935 129.398ZM53.0683 127.469C52.6744 129.671 53.7954 131.715 56.098 132.121C58.4006 132.527 60.1821 131.041 60.582 128.822C60.9819 126.602 59.8367 124.576 57.5523 124.164C55.2679 123.752 53.4682 125.219 53.0683 127.469Z" fill="#0B1F35"/>
<path d="M43.1614 131.69L39.0288 129.495L40.065 120.307L33.0543 126.329L29.1035 124.237L35.3447 112.441L38.0654 113.884L33.3451 122.793L41.5314 115.698L43.4219 116.729L42.1252 127.403L46.8152 118.548L49.4026 119.919L43.1614 131.69Z" fill="#0B1F35"/>
<path d="M24.2741 120.258L16.3181 112.429L18.1359 110.549L23.8379 116.122L25.5224 114.406L22.1352 111.07L24.0196 109.154L27.4069 112.489L29.4065 110.452L23.2077 104.369L25.1406 102.392L33.6238 110.737L24.2741 120.258Z" fill="#0B1F35"/>
<path d="M11.0101 84.8644L1.9997 85.4041L0.884766 82.4445L14.9063 81.7834L15.9424 84.5308L8.73778 90.4864L18.0935 90.2256L19.1054 92.9002L8.19849 101.803L6.95025 98.5343L14.058 92.9972L4.96882 93.3732L3.93265 90.6319L11.0101 84.8644Z" fill="#0B1F35"/>
<path d="M0.551408 77.1075L0 65.9544L2.62979 65.827L3.01759 73.7901L5.44136 73.6688L5.2111 68.9201L7.89543 68.7866L8.12568 73.5354L10.9797 73.3959L10.5495 64.705L13.3065 64.5656L13.9124 76.4525L0.551408 77.1075Z" fill="#0B1F35"/>
<path d="M0.466553 60.4961L1.07249 57.3545L11.3735 59.3317L12.852 51.593L15.6212 52.1207L13.5488 63.0008L0.466553 60.4961Z" fill="#0B1F35"/>
<path d="M9.58602 49.0398C8.74381 48.6922 7.98171 48.1756 7.34679 47.5218C6.71187 46.8679 6.21759 46.0907 5.89449 45.2382C5.57139 44.3857 5.42632 43.476 5.46824 42.5651C5.51016 41.6543 5.73817 40.7618 6.13821 39.9426C7.95604 35.9884 11.3372 35.6973 12.8581 36.0551L11.5129 39.0208C10.9073 39.0953 10.3326 39.3302 9.84794 39.7012C9.3633 40.0722 8.98632 40.5658 8.75588 41.1313C7.84091 43.1509 8.93766 45.1401 10.9373 46.0498C12.9369 46.9595 15.1789 46.4865 16.0757 44.4609C16.3695 43.9189 16.5053 43.3053 16.4679 42.6899C16.4304 42.0744 16.221 41.4819 15.8636 40.9797L17.2027 38.0322C18.3055 38.8267 20.5536 41.5619 18.6933 45.6556C18.3399 46.4951 17.8184 47.2533 17.161 47.8833C16.5036 48.5134 15.7242 49.002 14.8709 49.3191C14.0176 49.6362 13.1085 49.7749 12.1996 49.7269C11.2907 49.6789 10.4012 49.445 9.58602 49.0398Z" fill="#0B1F35"/>
<path d="M16.3847 34.7936C13.2338 32.1676 13.052 28.0071 15.6151 24.9262C18.1783 21.8453 22.2805 21.2874 25.4375 23.9073C28.5944 26.5273 28.7641 30.6938 26.2131 33.7565C23.6621 36.8192 19.5174 37.4015 16.3847 34.7936ZM23.353 26.406C21.6382 24.9747 19.3114 24.9505 17.8086 26.7578C16.3059 28.5651 16.7301 30.8454 18.4631 32.2889C20.1961 33.7323 22.5168 33.7323 24.0196 31.931C25.5223 30.1298 25.086 27.8494 23.353 26.406Z" fill="#0B1F35"/>
<path d="M24.5408 15.7138L28.4733 13.1848L35.9688 18.6006L34.151 9.50348L37.9139 7.07758L45.1307 18.3338L42.5433 20.0016L37.0898 11.5109L39.247 22.1182L37.4292 23.2766L28.8066 16.9268L34.2116 25.3568L31.7515 26.97L24.5408 15.7138Z" fill="#0B1F35"/>
<path d="M43.7612 4.85182L54.4864 1.77698L55.2135 4.30599L47.5605 6.50143L48.221 8.81818L52.7898 7.50212L53.529 10.0918L48.942 11.4018L49.7298 14.1491L58.0918 11.7232L58.8492 14.3796L47.4393 17.6849L43.7612 4.85182Z" fill="#0B1F35"/>
</svg>
