<svg width="32" height="32" viewBox="0 0 32 32" fill="none" xmlns="http://www.w3.org/2000/svg">
<g clip-path="url(#clip0)">
<path d="M9 7V28" stroke="#0B1F35" stroke-width="3"/>
<path d="M14.4518 19.225C14.3952 20.5401 14.3236 21.1833 13.3247 21.4293C13.0785 21.4899 12.9056 21.7059 12.9063 21.9519C12.9069 22.1978 13.0811 22.4097 13.3275 22.4643C13.3969 22.4796 15.0461 22.8368 16.8544 22.538C16.8547 22.5379 16.8549 22.5379 16.855 22.5379C18.1152 22.3296 19.1473 21.8547 19.9224 21.1266C20.841 20.2638 21.3742 19.0631 21.5144 17.5579L17.4723 14.7326C14.6077 15.6802 14.5166 17.7181 14.4518 19.225Z" fill="#0B1F35"/>
<path d="M30.467 1.23479C30.3583 1.15876 30.1734 1.07729 29.91 1.12082C29.6012 1.17187 28.7809 1.30749 24.4781 6.24121C22.4905 8.52014 20.2253 11.3074 18.4452 13.655L22.2809 16.336C24.09 13.7897 26.1691 10.6295 27.794 7.94354C28.8201 6.24765 29.5953 4.8601 30.0981 3.81958C30.7642 2.44137 31.0201 1.62129 30.467 1.23479Z" fill="#0B1F35"/>
<path fill-rule="evenodd" clip-rule="evenodd" d="M23.0875 5H6C3.79086 5 2 6.79086 2 9V26C2 28.2091 3.79086 30 6 30H24C26.2091 30 28 28.2091 28 26V11.1371C27.0301 12.6683 26.02 14.2287 25 15.7731V26C25 26.5523 24.5523 27 24 27H6C5.44772 27 5 26.5523 5 26V9C5 8.44772 5.44772 8 6 8H20.5491C21.4038 6.97511 22.2546 5.96924 23.0875 5Z" fill="#0B1F35"/>
</g>
<defs>
<clipPath id="clip0">
<rect width="32" height="32" fill="white"/>
</clipPath>
</defs>
</svg>
