<svg width="32" height="32" viewBox="0 0 32 32" fill="none" xmlns="http://www.w3.org/2000/svg">
<path d="M18.6667 16C18.6667 17.4728 17.4728 18.6667 16 18.6667C14.5272 18.6667 13.3333 17.4728 13.3333 16C13.3333 14.5272 14.5272 13.3333 16 13.3333C17.4728 13.3333 18.6667 14.5272 18.6667 16Z" fill="#0B1F35"/>
<path fill-rule="evenodd" clip-rule="evenodd" d="M0 16C2.78346 9.76928 9.00301 5.33333 15.9999 5.33333C22.9968 5.33333 29.2165 9.76928 32 16C29.2165 22.2308 22.9969 26.6667 16 26.6667C9.00309 26.6667 2.78346 22.2308 0 16ZM16 22.6667C19.6819 22.6667 22.6667 19.6819 22.6667 16C22.6667 12.3181 19.6819 9.33333 16 9.33333C12.3181 9.33333 9.33333 12.3181 9.33333 16C9.33333 19.6819 12.3181 22.6667 16 22.6667Z" fill="#0B1F35"/>
</svg>
