<svg width="32" height="32" viewBox="0 0 32 32" fill="none" xmlns="http://www.w3.org/2000/svg">
<path d="M16.4065 1.89386C16.127 1.14648 15.0699 1.14648 14.7904 1.89386L13.2428 6.03274C13.1215 6.35698 12.8182 6.57735 12.4724 6.59246L8.05785 6.78536C7.26069 6.82019 6.93401 7.8256 7.55846 8.32234L11.0165 11.0732C11.2874 11.2887 11.4033 11.6453 11.3108 11.9788L10.1301 16.2369C9.91686 17.0058 10.7721 17.6272 11.4375 17.1868L15.1223 14.7481C15.411 14.557 15.7859 14.557 16.0746 14.7481L19.7594 17.1868C20.4248 17.6272 21.28 17.0058 21.0668 16.2369L19.8861 11.9788C19.7936 11.6453 19.9095 11.2887 20.1804 11.0732L23.6384 8.32234C24.2629 7.8256 23.9362 6.82019 23.139 6.78536L18.7245 6.59246C18.3787 6.57735 18.0754 6.35698 17.9541 6.03274L16.4065 1.89386Z" fill="#0B1F35"/>
<path d="M22.4224 18.8118L15.5879 18.3112C14.7497 18.2498 14.0358 18.9133 14.0358 19.7538C14.0358 20.3968 14.4603 20.9626 15.0777 21.1425L19.5564 22.4473C14.1644 22.8425 9.07882 21.9149 6.46674 21.3088C5.55142 21.0964 4.63995 21.7853 4.63995 22.725C4.63995 23.2083 4.88453 23.6535 5.30503 23.8919C7.82042 25.3178 17.1301 30.1689 27.3665 30.1689V26.1689L27.3662 26.0878V24.1311C27.3662 21.3368 25.2094 19.0159 22.4224 18.8118Z" fill="#0B1F35"/>
</svg>
