<svg width="20" height="20" viewBox="0 0 20 20" fill="none" xmlns="http://www.w3.org/2000/svg">
<path fill-rule="evenodd" clip-rule="evenodd" d="M17.6375 10.9714C17.6815 10.6571 17.7109 10.3286 17.7109 10C17.7109 9.67143 17.6815 9.34286 17.6375 9.01429L19.8112 7.35714C20.0021 7.2 20.0609 6.92857 19.9287 6.71429L17.8725 3.25714C17.7403 3.04286 17.4759 2.95714 17.2409 3.04286L14.6853 4.04286C14.1565 3.64286 13.5837 3.31429 12.9522 3.05714L12.5703 0.414286C12.5262 0.185714 12.3059 0 12.0562 0H7.94376C7.69407 0 7.47376 0.185715 7.4297 0.428572L7.04782 3.07143C6.43095 3.32857 5.84346 3.65714 5.31471 4.05714L2.75909 3.05714C2.52409 2.97143 2.25972 3.05714 2.12753 3.27143L0.0712905 6.72857C-0.0608965 6.94286 -0.0021461 7.21429 0.188791 7.37143L2.36253 9.02857C2.31847 9.34286 2.28909 9.67143 2.28909 10C2.28909 10.3286 2.31847 10.6571 2.36253 10.9857L0.188791 12.6429C-0.0021461 12.8 -0.0608965 13.0714 0.0712905 13.2857L2.12753 16.7429C2.25972 16.9571 2.52409 17.0429 2.75909 16.9571L5.31471 15.9571C5.84346 16.3571 6.41626 16.6857 7.04782 16.9429L7.4297 19.5857C7.47376 19.8143 7.69407 20 7.94376 20H12.0562C12.3059 20 12.5262 19.8143 12.5703 19.5714L12.9522 16.9286C13.569 16.6714 14.1565 16.3429 14.6853 15.9429L17.2409 16.9429C17.4759 17.0286 17.7403 16.9429 17.8725 16.7286L19.9287 13.2714C20.0609 13.0571 20.0021 12.7857 19.8112 12.6286L17.6375 10.9714ZM10 14C12.2091 14 14 12.2091 14 10C14 7.79086 12.2091 6 10 6C7.79086 6 6 7.79086 6 10C6 12.2091 7.79086 14 10 14Z" fill="#0B1F35"/>
</svg>
