<svg width="24" height="24" viewBox="0 0 24 24" fill="none" xmlns="http://www.w3.org/2000/svg">
<path fill-rule="evenodd" clip-rule="evenodd" d="M10 2.78077C10 2.1302 10.6114 1.65284 11.2425 1.81062L19.6213 3.90531C19.8439 3.96095 20 4.16094 20 4.39038V19.6096C20 19.839 19.8439 20.039 19.6213 20.0947L11.2425 22.1894C10.6114 22.3471 10 21.8698 10 21.2192V2.78077ZM4 4.99999C4 4.4477 4.44772 3.99999 5 3.99999H7C7.55228 3.99999 8 4.4477 8 4.99999V5.77777V11.1111V14.2222V18.2222V19C8 19.5523 7.55228 20 7 20H5C4.44772 20 4 19.5523 4 19V4.99999ZM13.5 13C14.3284 13 15 12.3284 15 11.5C15 10.6716 14.3284 10 13.5 10C12.6716 10 12 10.6716 12 11.5C12 12.3284 12.6716 13 13.5 13Z" fill="#0B1F35"/>
</svg>
